<svg id="Capa_1" data-name="Capa 1" xmlns="http://www.w3.org/2000/svg" viewBox="0 0 361 273"><defs><style>.cls-1{fill:#02a9ff;}.cls-2{fill:#fefefe;}</style></defs><path class="cls-1" d="M321.92,323.27V136.6c0-10.7-5.89-16.6-16.56-16.6H268.93c-10.67,0-16.56,5.9-16.56,16.6v88.65c0,2.5,24,14.09,24.62,16.54,18.28,71.61,4,128.92-13.36,131.6,28.34,1.41,31.46,15.07,10.35,5.73,3.23-38.21,15.83-38.13,52-1.4.31.31,7.43,15.28,7.87,15.28h85.54c10.68,0,16.56-5.9,16.56-16.6V339.88c0-10.7-5.88-16.61-16.56-16.61Z" transform="translate(-75 -120)"/><path class="cls-2" d="M170.68,120,75,393h74.34l16.19-47.22h81L262.32,393h74L241,120Zm11.78,165.28,23.18-75.63L231,285.28Z" transform="translate(-75 -120)"/></svg>